<svg width="24" height="24" viewBox="0 0 24 24" fill="none" xmlns="http://www.w3.org/2000/svg">
<path d="M21.5 11.746C21.5004 13.4293 21.0649 15.084 20.236 16.5491C19.4072 18.0142 18.2131 19.2398 16.77 20.1065C15.327 20.9732 13.6841 21.4515 12.0014 21.4949C10.3186 21.5383 8.6533 21.1453 7.1675 20.3541L3.97531 21.4182C3.71102 21.5063 3.4274 21.5191 3.15624 21.4551C2.88509 21.3911 2.63711 21.2529 2.44011 21.0559C2.24311 20.8589 2.10486 20.6109 2.04087 20.3398C1.97688 20.0686 1.98967 19.785 2.07781 19.5207L3.14187 16.3285C2.44639 15.0209 2.05793 13.5721 2.006 12.0919C1.95406 10.6118 2.24001 9.13926 2.84213 7.78613C3.44425 6.433 4.34672 5.23483 5.48105 4.28256C6.61537 3.33029 7.95173 2.64895 9.38869 2.29026C10.8256 1.93157 12.3254 1.90496 13.7742 2.21244C15.223 2.51992 16.5827 3.15342 17.7501 4.06485C18.9175 4.97627 19.8619 6.14168 20.5116 7.47259C21.1614 8.80351 21.4994 10.265 21.5 11.746Z" fill="white"/>
<path d="M13.125 12C13.125 12.2225 13.059 12.44 12.9354 12.625C12.8118 12.81 12.6361 12.9542 12.4305 13.0394C12.225 13.1245 11.9988 13.1468 11.7805 13.1034C11.5623 13.06 11.3618 12.9528 11.2045 12.7955C11.0472 12.6382 10.94 12.4377 10.8966 12.2195C10.8532 12.0012 10.8755 11.775 10.9606 11.5695C11.0458 11.3639 11.19 11.1882 11.375 11.0646C11.56 10.941 11.7775 10.875 12 10.875C12.2984 10.875 12.5845 10.9935 12.7955 11.2045C13.0065 11.4155 13.125 11.7016 13.125 12ZM7.875 10.875C7.6525 10.875 7.43499 10.941 7.24998 11.0646C7.06498 11.1882 6.92078 11.3639 6.83564 11.5695C6.75049 11.775 6.72821 12.0012 6.77162 12.2195C6.81503 12.4377 6.92217 12.6382 7.07951 12.7955C7.23684 12.9528 7.4373 13.06 7.65552 13.1034C7.87375 13.1468 8.09995 13.1245 8.30552 13.0394C8.51109 12.9542 8.68679 12.81 8.81041 12.625C8.93402 12.44 9 12.2225 9 12C9 11.7016 8.88148 11.4155 8.6705 11.2045C8.45952 10.9935 8.17337 10.875 7.875 10.875ZM16.125 10.875C15.9025 10.875 15.685 10.941 15.5 11.0646C15.315 11.1882 15.1708 11.3639 15.0856 11.5695C15.0005 11.775 14.9782 12.0012 15.0216 12.2195C15.065 12.4377 15.1722 12.6382 15.3295 12.7955C15.4868 12.9528 15.6873 13.06 15.9055 13.1034C16.1238 13.1468 16.35 13.1245 16.5555 13.0394C16.7611 12.9542 16.9368 12.81 17.0604 12.625C17.184 12.44 17.25 12.2225 17.25 12C17.25 11.7016 17.1315 11.4155 16.9205 11.2045C16.7095 10.9935 16.4234 10.875 16.125 10.875Z" fill="#4D00FF"/>
</svg>
