<svg width="20" height="20" viewBox="0 0 20 20" fill="none" xmlns="http://www.w3.org/2000/svg">
<path d="M7.38879 0.290527C8.8257 -0.0681626 10.3257 -0.0950777 11.7745 0.212402C13.2232 0.51986 14.5828 1.15362 15.7501 2.06494C16.9175 2.97636 17.8621 4.14223 18.5118 5.47314C19.1616 6.80402 19.4995 8.26565 19.5001 9.74658C19.5005 11.4297 19.0652 13.0843 18.2365 14.5493C17.4077 16.0143 16.2136 17.2402 14.7706 18.1069C13.3277 18.9736 11.6846 19.4521 10.0021 19.4956C8.31931 19.539 6.65387 19.1452 5.16809 18.354L1.97571 19.4185C1.71142 19.5066 1.42753 19.5196 1.15637 19.4556C0.885281 19.3916 0.637522 19.2531 0.440552 19.0562C0.243599 18.8592 0.105148 18.6114 0.0411377 18.3403C-0.0228523 18.0691 -0.00989293 17.7853 0.0782471 17.521L1.14172 14.3286C0.446363 13.0211 0.0579138 11.5723 0.00598145 10.0923C-0.0459546 8.6123 0.239893 7.13967 0.841919 5.78662C1.44404 4.43349 2.34724 3.23498 3.48157 2.28271C4.6158 1.33058 5.95198 0.649201 7.38879 0.290527ZM5.87512 8.87549C5.65267 8.87552 5.43509 8.94137 5.25012 9.06494C5.06518 9.18853 4.92119 9.36428 4.83606 9.56982C4.75091 9.77532 4.7282 10.0019 4.77161 10.2202C4.81506 10.4383 4.92294 10.6382 5.0802 10.7954C5.23745 10.9526 5.4373 11.0606 5.6554 11.104C5.87363 11.1474 6.10022 11.1247 6.30579 11.0396C6.51129 10.9544 6.68707 10.8104 6.81067 10.6255C6.93425 10.4405 7.00009 10.2229 7.00012 10.0005C7.00012 9.70209 6.88199 9.41559 6.67102 9.20459C6.46004 8.99359 6.17349 8.87549 5.87512 8.87549ZM10.0001 8.87549C9.77767 8.87552 9.56008 8.94137 9.37512 9.06494C9.19019 9.18852 9.04625 9.36429 8.96106 9.56982C8.87596 9.77532 8.85321 10.0019 8.89661 10.2202C8.94005 10.4383 9.04798 10.6382 9.2052 10.7954C9.36243 10.9526 9.56232 11.0606 9.7804 11.104C9.9987 11.1474 10.2253 11.1247 10.4308 11.0396C10.6363 10.9544 10.8121 10.8104 10.9357 10.6255C11.0592 10.4405 11.1251 10.2229 11.1251 10.0005C11.1251 9.70209 11.007 9.41559 10.796 9.20459C10.585 8.99359 10.2985 8.87549 10.0001 8.87549ZM14.1251 8.87549C13.9027 8.87552 13.6851 8.94137 13.5001 9.06494C13.3152 9.18852 13.1712 9.36429 13.0861 9.56982C13.001 9.77532 12.9782 10.0019 13.0216 10.2202C13.065 10.4383 13.173 10.6382 13.3302 10.7954C13.4874 10.9526 13.6873 11.0606 13.9054 11.104C14.1237 11.1474 14.3503 11.1247 14.5558 11.0396C14.7613 10.9544 14.9371 10.8104 15.0607 10.6255C15.1842 10.4405 15.2501 10.2229 15.2501 10.0005C15.2501 9.70209 15.132 9.41559 14.921 9.20459C14.71 8.99359 14.4235 8.87549 14.1251 8.87549Z" fill="black"/>
</svg>
