<svg width="20" height="20" viewBox="0 0 20 20" fill="none" xmlns="http://www.w3.org/2000/svg">
<path d="M10.875 9.74599C10.875 9.96849 10.809 10.186 10.6854 10.371C10.5618 10.556 10.3861 10.7002 10.1805 10.7854C9.975 10.8705 9.7488 10.8928 9.5305 10.8494C9.3123 10.806 9.1118 10.6988 8.9545 10.5415C8.7972 10.3842 8.69 10.1837 8.6466 9.96549C8.6032 9.74729 8.6255 9.52109 8.7106 9.31549C8.7958 9.10989 8.94 8.93419 9.125 8.81059C9.31 8.68699 9.5275 8.62099 9.75 8.62099C10.0484 8.62099 10.3345 8.73949 10.5455 8.95049C10.7565 9.16149 10.875 9.44759 10.875 9.74599ZM5.625 8.62099C5.4025 8.62099 5.18499 8.68699 4.99998 8.81059C4.81498 8.93419 4.67078 9.10989 4.58564 9.31549C4.50049 9.52109 4.47821 9.74729 4.52162 9.96549C4.56502 10.1837 4.67217 10.3842 4.8295 10.5415C4.98684 10.6988 5.18729 10.806 5.40552 10.8494C5.62375 10.8928 5.84995 10.8705 6.05552 10.7854C6.26109 10.7002 6.43679 10.556 6.5604 10.371C6.68402 10.186 6.75 9.96849 6.75 9.74599C6.75 9.44759 6.63147 9.16149 6.4205 8.95049C6.20952 8.73949 5.92337 8.62099 5.625 8.62099ZM13.875 8.62099C13.6525 8.62099 13.435 8.68699 13.25 8.81059C13.065 8.93419 12.9208 9.10989 12.8356 9.31549C12.7505 9.52109 12.7282 9.74729 12.7716 9.96549C12.815 10.1837 12.9222 10.3842 13.0795 10.5415C13.2368 10.6988 13.4373 10.806 13.6555 10.8494C13.8738 10.8928 14.1 10.8705 14.3055 10.7854C14.5111 10.7002 14.6868 10.556 14.8104 10.371C14.934 10.186 15 9.96849 15 9.74599C15 9.44759 14.8815 9.16149 14.6705 8.95049C14.4595 8.73949 14.1734 8.62099 13.875 8.62099ZM19.5 9.74599C19.5004 11.4293 19.0649 13.0841 18.236 14.5491C17.4072 16.0142 16.2131 17.2398 14.77 18.1065C13.327 18.9732 11.6841 19.4515 10.0014 19.4949C8.3186 19.5383 6.6533 19.1453 5.1675 18.3541L1.97531 19.4182C1.71102 19.5063 1.4274 19.5191 1.15624 19.4551C0.885088 19.3911 0.637108 19.2529 0.440108 19.0559C0.243108 18.8589 0.104858 18.6109 0.0408679 18.3398C-0.0231221 18.0686 -0.010332 17.785 0.077808 17.5207L1.14187 14.3285C0.446388 13.0209 0.057928 11.5721 0.00599801 10.0919C-0.045942 8.61179 0.240008 7.13925 0.842128 5.78612C1.44425 4.43299 2.34672 3.23482 3.48105 2.28255C4.61537 1.33028 5.95173 0.648943 7.38869 0.290253C8.8256 -0.0684267 10.3254 -0.0950465 11.7742 0.212443C13.223 0.519923 14.5827 1.15342 15.7501 2.06484C16.9175 2.97627 17.8619 4.14167 18.5116 5.47259C19.1614 6.8035 19.4994 8.26499 19.5 9.74599ZM18 9.74599C17.9996 8.48049 17.7082 7.23202 17.1481 6.09719C16.588 4.96236 15.7744 3.97159 14.7701 3.20153C13.7659 2.43146 12.5979 1.90275 11.3567 1.6563C10.1154 1.40984 8.834 1.45225 7.61178 1.78024C6.38951 2.10824 5.25909 2.71302 4.30796 3.5478C3.35682 4.38259 2.61049 5.42499 2.12668 6.59437C1.64288 7.76379 1.43458 9.02879 1.5179 10.2915C1.60122 11.5543 1.97393 12.781 2.60719 13.8766C2.66034 13.9686 2.69334 14.0708 2.704 14.1765C2.71467 14.2822 2.70276 14.389 2.66906 14.4898L1.5 17.996L5.00625 16.8269C5.08262 16.8009 5.16275 16.7876 5.24344 16.7876C5.37516 16.7878 5.5045 16.8227 5.61844 16.8888C6.87263 17.6145 8.2958 17.997 9.7448 17.9979C11.1938 17.9988 12.6174 17.6181 13.8725 16.894C15.1276 16.17 16.1699 15.1281 16.8945 13.8733C17.619 12.6185 18.0003 11.195 18 9.74599Z" fill="black"/>
</svg>
