<svg width="20" height="20" viewBox="0 0 20 20" fill="none" xmlns="http://www.w3.org/2000/svg">
<path d="M12.2402 1.02539C11.0477 0.727713 9.80951 0.671383 8.59766 0.857422L8.08008 0.952148C6.706 1.24384 5.41607 1.84446 4.30859 2.70898C3.20095 3.57384 2.30389 4.67986 1.6875 5.94238C1.07116 7.20501 0.750617 8.59189 0.75 9.99707C0.749728 11.5939 1.16301 13.1637 1.94922 14.5537C2.73558 15.9438 3.86855 17.1073 5.2373 17.9297C6.60619 18.7518 8.16542 19.2059 9.76172 19.2471C11.358 19.2882 12.9384 18.9154 14.3477 18.165L14.6641 17.9971L14.9482 17.8457L15.2539 17.9473L15.5928 18.0596L19.1396 19.2432L19.1855 19.2451C19.1976 19.2423 19.2125 19.2347 19.2256 19.2217C19.238 19.209 19.2451 19.1949 19.248 19.1826L19.2451 19.1367L18.0625 15.5889L17.9502 15.251L17.8477 14.9453L17.999 14.6611L18.167 14.3457C18.8267 13.1053 19.1949 11.7299 19.2441 10.3252C19.2934 8.92088 19.0222 7.52384 18.4512 6.24023C17.88 4.95667 17.0242 3.81949 15.9482 2.91602C14.8719 2.01238 13.6033 1.36567 12.2402 1.02539Z" stroke="black" stroke-width="1.5"/>
</svg>
