<svg width="20" height="20" viewBox="0 0 20 20" fill="none" xmlns="http://www.w3.org/2000/svg">
<path d="M7.57031 1.01758C8.89662 0.686521 10.2809 0.662528 11.6182 0.946289C12.9554 1.23011 14.2105 1.815 15.2881 2.65625C16.3657 3.49757 17.2381 4.57322 17.8379 5.80176C18.4376 7.03018 18.7494 8.37912 18.75 9.74609C18.7503 11.2999 18.3481 12.8273 17.583 14.1797C16.8179 15.5321 15.7158 16.6638 14.3838 17.4639C13.0519 18.2637 11.5355 18.705 9.98242 18.7451C8.42911 18.7852 6.89104 18.4227 5.51953 17.6924L5.23535 17.541L4.93066 17.6426L1.73828 18.707C1.60613 18.7511 1.4637 18.7576 1.32812 18.7256C1.19268 18.6936 1.06913 18.6238 0.970703 18.5254C0.872293 18.427 0.802542 18.3034 0.770508 18.168C0.738512 18.0324 0.744993 17.89 0.789062 17.7578L1.85352 14.5654L1.95508 14.2607L1.80371 13.9766C1.16172 12.7696 0.803801 11.4317 0.755859 10.0654C0.707945 8.69921 0.971562 7.33981 1.52734 6.09082C2.08307 4.84203 2.91608 3.73634 3.96289 2.85742C5.00996 1.9784 6.24389 1.34868 7.57031 1.01758Z" stroke="white" stroke-width="1.5"/>
</svg>
