<svg width="24" height="24" viewBox="0 0 24 24" fill="none" xmlns="http://www.w3.org/2000/svg">
<path d="M12.0039 2.75146C12.2526 2.75146 12.4927 2.84402 12.6768 3.01123V3.01025C12.6781 3.01153 12.6793 3.0129 12.6807 3.01416V3.01611L20.1807 10.0923L20.1826 10.0942C20.2832 10.1882 20.3634 10.3018 20.418 10.4282C20.4726 10.5548 20.5007 10.6917 20.5 10.8296V19.4995C20.5 19.7646 20.3945 20.019 20.207 20.2065C20.0195 20.3941 19.7652 20.4995 19.5 20.4995H15.75C15.4848 20.4995 15.2305 20.3941 15.043 20.2065C14.8555 20.019 14.75 19.7646 14.75 19.4995V15.7495C14.7499 15.4181 14.6181 15.1001 14.3838 14.8657C14.1494 14.6314 13.8314 14.4995 13.5 14.4995H10.5C10.1686 14.4995 9.85062 14.6314 9.61621 14.8657C9.38187 15.1001 9.25009 15.4181 9.25 15.7495V19.4995C9.25 19.7646 9.14446 20.019 8.95703 20.2065C8.7695 20.3941 8.51522 20.4995 8.25 20.4995H4.5C4.23478 20.4995 3.9805 20.3941 3.79297 20.2065C3.60554 20.019 3.5 19.7646 3.5 19.4995V10.8325C3.49999 10.6941 3.52838 10.5569 3.58398 10.4302C3.6396 10.3035 3.72142 10.1898 3.82324 10.0962L3.82812 10.0923L11.3281 3.01611L11.333 3.01123L11.3379 3.00537C11.521 2.84183 11.7582 2.75154 12.0039 2.75146Z" stroke="#828387"/>
</svg>
