<svg width="18" height="19" viewBox="0 0 18 19" fill="none" xmlns="http://www.w3.org/2000/svg">
<path d="M18 8.58124V17.2484C18 17.6462 17.842 18.0277 17.5607 18.309C17.2794 18.5903 16.8978 18.7484 16.5 18.7484H12.75C12.3522 18.7484 11.9706 18.5903 11.6893 18.309C11.408 18.0277 11.25 17.6462 11.25 17.2484V13.4984C11.25 13.2995 11.171 13.1087 11.0303 12.968C10.8897 12.8274 10.6989 12.7484 10.5 12.7484H7.5C7.3011 12.7484 7.1103 12.8274 6.96967 12.968C6.82902 13.1087 6.75 13.2995 6.75 13.4984V17.2484C6.75 17.6462 6.59196 18.0277 6.31066 18.309C6.02936 18.5903 5.64782 18.7484 5.25 18.7484H1.5C1.10218 18.7484 0.72064 18.5903 0.43934 18.309C0.15804 18.0277 1.5665e-08 17.6462 1.5665e-08 17.2484V8.58124C-2.99843e-05 8.37364 0.0430301 8.16824 0.12646 7.97814C0.20989 7.78804 0.33187 7.61737 0.48469 7.47685L7.9847 0.4006L7.995 0.39029C8.2711 0.13916 8.631 0 9.0042 0C9.3775 0 9.7373 0.13916 10.0134 0.39029C10.0166 0.39395 10.0201 0.3974 10.0238 0.4006L17.5238 7.47685C17.675 7.61811 17.7954 7.78914 17.8774 7.97924C17.9594 8.16924 18.0011 8.37424 18 8.58124Z" fill="black"/>
</svg>
