<svg width="18" height="19" viewBox="0 0 18 19" fill="none" xmlns="http://www.w3.org/2000/svg">
<path d="M9.0039 0.5C9.2526 0.5 9.4927 0.59256 9.6768 0.75977C9.6781 0.76105 9.6793 0.76144 9.6807 0.7627V0.76465L17.1807 7.84084L17.1826 7.84274C17.2832 7.93674 17.3634 8.05034 17.418 8.17674C17.4726 8.30334 17.5007 8.44024 17.5 8.57814V17.248C17.5 17.5131 17.3945 17.7675 17.207 17.955C17.0195 18.1426 16.7652 18.248 16.5 18.248H12.75C12.4848 18.248 12.2305 18.1426 12.043 17.955C11.8555 17.7675 11.75 17.5131 11.75 17.248V13.498C11.7499 13.1666 11.6181 12.8486 11.3838 12.6142C11.1494 12.3799 10.8314 12.248 10.5 12.248H7.5C7.1686 12.248 6.85062 12.3799 6.61621 12.6142C6.38187 12.8486 6.25009 13.1666 6.25 13.498V17.248C6.25 17.5131 6.14446 17.7675 5.95703 17.955C5.7695 18.1426 5.51522 18.248 5.25 18.248H1.5C1.23478 18.248 0.9805 18.1426 0.79297 17.955C0.60554 17.7675 0.5 17.5131 0.5 17.248V8.58104C0.49999 8.44264 0.52838 8.30544 0.58398 8.17874C0.6396 8.05204 0.72142 7.93834 0.82324 7.84474L0.82812 7.84084L8.3281 0.76465L8.333 0.75977L8.3379 0.75391C8.521 0.59037 8.7582 0.50008 9.0039 0.5Z" stroke="black"/>
</svg>
