<svg width="20" height="19" viewBox="0 0 20 19" fill="none" xmlns="http://www.w3.org/2000/svg">
<path d="M10.0041 1C10.2675 1 10.5217 1.08866 10.7166 1.24882C10.718 1.25005 10.7193 1.25042 10.7207 1.25163V1.2535L18.6619 8.03144L18.6639 8.03326C18.7704 8.1233 18.8554 8.23211 18.9132 8.35318C18.971 8.47445 19.0007 8.60558 19 8.73767V17.0421C19 17.2961 18.8883 17.5398 18.6898 17.7194C18.4912 17.899 18.222 18 17.9412 18H13.9706C13.6898 18 13.4205 17.899 13.222 17.7194C13.0235 17.5398 12.9118 17.2961 12.9118 17.0421V13.4502C12.9117 13.1328 12.7721 12.8282 12.524 12.6037C12.2758 12.3792 11.9391 12.2529 11.5882 12.2529H8.41176C8.06087 12.2529 7.72418 12.3792 7.47598 12.6037C7.22786 12.8282 7.08833 13.1328 7.08823 13.4502V17.0421C7.08823 17.2961 6.97648 17.5398 6.77803 17.7194C6.57947 17.899 6.31023 18 6.02941 18H2.05882C1.778 18 1.50876 17.899 1.3102 17.7194C1.11175 17.5398 1 17.2961 1 17.0421V8.74044C0.999989 8.60788 1.03005 8.47646 1.08892 8.3551C1.14781 8.23374 1.23444 8.12483 1.34225 8.03518L1.34742 8.03144L9.28857 1.2535L9.29376 1.24882L9.29895 1.24321C9.49282 1.08656 9.74397 1.00008 10.0041 1Z" stroke="black" stroke-width="2"/>
</svg>
