<svg width="16" height="14" viewBox="0 0 16 14" fill="none" xmlns="http://www.w3.org/2000/svg">
<path d="M16 4.3927C16 9.35221 8.58643 13.3666 8.27071 13.5324C8.1875 13.5768 8.09449 13.6 8 13.6C7.90551 13.6 7.8125 13.5768 7.72929 13.5324C7.41357 13.3666 0 9.35221 0 4.3927C0.00132338 3.22809 0.468329 2.11155 1.29856 1.28804C2.12879 0.464536 3.25445 0.00131267 4.42857 0C5.90357 0 7.195 0.629148 8 1.69261C8.805 0.629148 10.0964 0 11.5714 0C12.7456 0.00131267 13.8712 0.464536 14.7014 1.28804C15.5317 2.11155 15.9987 3.22809 16 4.3927Z" fill="#FF5C2C"/>
</svg>
