<svg width="22" height="19" viewBox="0 0 22 19" fill="none" xmlns="http://www.w3.org/2000/svg">
<path d="M15.6141 0.750001C18.4571 0.750001 20.75 3.07192 20.75 5.91848C20.7499 8.59482 19.1672 11.2561 17.001 13.461C14.9456 15.5532 12.4902 17.1013 10.75 17.75C9.00975 17.1013 6.55442 15.5532 4.499 13.461C2.3328 11.2561 0.750101 8.59482 0.75 5.91848C0.75 3.16082 2.90132 0.895458 5.62067 0.756716L5.88592 0.750001C6.71116 0.749414 7.52429 0.949803 8.25594 1.33279C8.98749 1.71573 9.61623 2.27096 10.0889 2.94953C10.2408 3.16729 10.4875 3.29715 10.75 3.29732C11.0125 3.29732 11.259 3.16729 11.4111 2.94953C12.3398 1.61992 13.8752 0.750177 15.6141 0.750001Z" stroke="black" stroke-width="1.5" stroke-linecap="round" stroke-linejoin="round"/>
</svg>
