<svg width="14" height="12" viewBox="0 0 14 12" fill="none" xmlns="http://www.w3.org/2000/svg">
<path d="M9.66699 0.5C11.4202 0.500174 12.833 1.90681 12.833 3.63184C12.833 5.2539 11.8575 6.86675 10.5215 8.20312C9.25399 9.47099 7.74019 10.4095 6.66699 10.8027C5.59376 10.4097 4.07925 9.47121 2.81152 8.20312C1.47562 6.86679 0.5 5.25383 0.5 3.63184C0.500004 1.96074 1.82614 0.588235 3.50293 0.503906L3.66699 0.5C4.17592 0.499644 4.6777 0.620437 5.12891 0.852539C5.57994 1.08459 5.96735 1.42091 6.25879 1.83203C6.35241 1.96412 6.50413 2.04276 6.66602 2.04297C6.82798 2.04307 6.98036 1.965 7.07422 1.83301C7.64701 1.02703 8.59441 0.5 9.66699 0.5Z" stroke="white" stroke-linecap="round" stroke-linejoin="round"/>
</svg>
