<svg width="11" height="16" viewBox="0 0 11 16" fill="none" xmlns="http://www.w3.org/2000/svg">
<path d="M9.80371 7.07129C9.93153 7.07133 10.0541 7.1225 10.1445 7.21289C10.2349 7.3033 10.2861 7.4259 10.2861 7.55371V8.03613L10.2803 8.27539C10.2246 9.46954 9.75435 10.6103 8.94629 11.498C8.08433 12.445 6.89984 13.0362 5.625 13.1562V14.9463C5.625 15.0742 5.57382 15.1967 5.4834 15.2871C5.39299 15.3775 5.27042 15.4287 5.14258 15.4287L5.04883 15.4189C4.956 15.4005 4.86967 15.355 4.80176 15.2871C4.73407 15.2193 4.68844 15.1336 4.66992 15.041L4.66113 14.9463V13.1562C3.38638 13.0362 2.20179 12.4448 1.33984 11.498C0.531791 10.6103 0.0615057 9.46954 0.00585938 8.27539L0 8.03613V7.55371C0 7.42584 0.0511822 7.30331 0.141602 7.21289C0.232014 7.12252 0.354583 7.07129 0.482422 7.07129C0.610193 7.07136 0.732889 7.12254 0.823242 7.21289C0.913531 7.30329 0.963867 7.42594 0.963867 7.55371V8.03613L0.969727 8.24316C1.02102 9.27585 1.45388 10.2556 2.18848 10.9902C2.97204 11.7738 4.03449 12.2138 5.14258 12.2139C6.2508 12.2139 7.31402 11.7739 8.09766 10.9902C8.83217 10.2556 9.26512 9.2758 9.31641 8.24316L9.32129 8.03613V7.55371C9.32129 7.42584 9.37247 7.30331 9.46289 7.21289C9.55331 7.12247 9.67584 7.07129 9.80371 7.07129ZM5.14258 0C5.90981 0 6.64596 0.30514 7.18848 0.847656C7.7308 1.39009 8.03606 2.12554 8.03613 2.89258V8.03613L8.02148 8.31934C7.99364 8.60189 7.92446 8.87931 7.81543 9.14258C7.67008 9.4935 7.45704 9.81246 7.18848 10.0811L6.97754 10.2725C6.75821 10.4524 6.51303 10.599 6.25 10.708L5.98242 10.8037C5.71067 10.8861 5.42758 10.9287 5.14258 10.9287L4.85938 10.915C4.67093 10.8965 4.48492 10.8586 4.30371 10.8037L4.03613 10.708C3.77289 10.599 3.52709 10.4525 3.30762 10.2725L3.09766 10.0811C2.82903 9.81243 2.61511 9.49356 2.46973 9.14258C2.36073 8.87935 2.2915 8.60184 2.26367 8.31934L2.25 8.03613V2.89258C2.25006 2.22134 2.48354 1.57427 2.90527 1.05957L3.09766 0.847656C3.64011 0.305206 4.37545 7.38653e-05 5.14258 0ZM5.14258 1C4.64066 1.00007 4.1596 1.19977 3.80469 1.55469C3.44977 1.9096 3.25007 2.39066 3.25 2.89258V8.03613C3.25005 8.28453 3.29949 8.53028 3.39453 8.75977C3.48966 8.98942 3.62892 9.19825 3.80469 9.37402C3.98044 9.54976 4.18932 9.68907 4.41895 9.78418C4.64843 9.87919 4.8942 9.92867 5.14258 9.92871C5.39115 9.92871 5.63753 9.8793 5.86719 9.78418C6.09681 9.68906 6.3057 9.54977 6.48145 9.37402C6.65715 9.19828 6.7965 8.98936 6.8916 8.75977C6.9866 8.53032 7.03608 8.28447 7.03613 8.03613V2.89258C7.03606 2.39076 6.83623 1.90958 6.48145 1.55469C6.12647 1.19971 5.6446 1 5.14258 1Z" fill="black"/>
</svg>
