<svg width="18" height="22" viewBox="0 0 18 22" fill="none" xmlns="http://www.w3.org/2000/svg">
<path d="M3.62403 6.01611C3.21731 6.83675 2.99903 7.74701 2.99903 8.68018C2.99903 12.0626 2.22089 14.9389 1.49903 16.1802H10.5791L12.3018 18.6978C12.0698 19.131 11.7562 19.5193 11.3701 19.8345C10.7007 20.3809 9.86312 20.6792 8.99903 20.6792C8.13495 20.6792 7.29737 20.3808 6.62794 19.8345C5.95848 19.288 5.49825 18.5268 5.3252 17.6802H1.49903C1.23531 17.68 0.976232 17.6103 0.748055 17.478C0.519958 17.3459 0.330529 17.1559 0.199227 16.9272C0.0679628 16.6986 -0.000853526 16.4389 7.99073e-06 16.1753C0.000917991 15.9115 0.0712395 15.6521 0.20411 15.4243C0.724419 14.5279 1.49903 11.9931 1.49903 8.68018C1.49903 7.23647 1.91658 5.83658 2.68263 4.63916L3.62403 6.01611ZM6.87794 17.6802C7.03296 18.1187 7.32044 18.4985 7.7002 18.7671C8.0799 19.0357 8.53383 19.1801 8.99903 19.1802C9.4642 19.1801 9.91819 19.0357 10.2979 18.7671C10.6775 18.4985 10.9642 18.1186 11.1191 17.6802H6.87794ZM8.99903 1.18018C10.9879 1.1802 12.8953 1.97024 14.3018 3.37646C15.7083 4.78298 16.499 6.69106 16.499 8.68018C16.499 11.9923 17.2727 14.528 17.793 15.4243C17.9258 15.652 17.996 15.9108 17.9971 16.1743C17.998 16.438 17.929 16.6976 17.7979 16.9263C17.6667 17.1549 17.4781 17.3456 17.25 17.478C17.0219 17.6103 16.7627 17.6798 16.499 17.6802H12.8164L11.79 16.1802H16.499C15.7752 14.9361 14.999 12.0599 14.999 8.68018C14.999 7.08891 14.3665 5.5632 13.2412 4.43799C12.116 3.31279 10.5903 2.6802 8.99903 2.68018C7.40773 2.68018 5.88108 3.31277 4.75587 4.43799C4.55322 4.64067 4.36711 4.85676 4.19727 5.0835L3.31348 3.7915C3.43567 3.64941 3.56189 3.5099 3.69532 3.37646C5.10184 1.96998 7.00995 1.18018 8.99903 1.18018Z" fill="black"/>
<path d="M1.61438 0.75L15.6144 20.75" stroke="black" stroke-width="1.5" stroke-linecap="round"/>
</svg>
