<svg width="18" height="20" viewBox="0 0 18 20" fill="none" xmlns="http://www.w3.org/2000/svg">
<path d="M17.7927 14.2444C17.2724 13.3481 16.4989 10.8122 16.4989 7.5C16.4989 5.51088 15.7087 3.60322 14.3022 2.1967C12.8957 0.79018 10.988 0 8.9989 0C7.0098 0 5.10213 0.79018 3.69561 2.1967C2.28909 3.60322 1.49891 5.51088 1.49891 7.5C1.49891 10.8131 0.724539 13.3481 0.204219 14.2444C0.0713487 14.4722 0.000908929 14.7311 8.92928e-06 14.9949C-0.000901071 15.2586 0.0677589 15.518 0.199069 15.7467C0.330369 15.9755 0.519669 16.1656 0.747889 16.2978C0.976099 16.4301 1.23515 16.4998 1.49891 16.5H5.32485C5.49789 17.3467 5.95806 18.1077 6.62754 18.6542C7.297 19.2007 8.1347 19.4992 8.9989 19.4992C9.8631 19.4992 10.7008 19.2007 11.3703 18.6542C12.0398 18.1077 12.4999 17.3467 12.673 16.5H16.4989C16.7626 16.4996 17.0215 16.4298 17.2496 16.2975C17.4777 16.1651 17.6669 15.975 17.7981 15.7463C17.9292 15.5176 17.9978 15.2583 17.9969 14.9946C17.9959 14.7309 17.9255 14.4722 17.7927 14.2444ZM8.9989 18C8.5337 17.9999 8.0801 17.8555 7.7003 17.5869C7.3205 17.3183 7.0333 16.9386 6.87829 16.5H11.1195C10.9645 16.9386 10.6773 17.3183 10.2975 17.5869C9.9178 17.8555 9.4641 17.9999 8.9989 18Z" fill="black"/>
</svg>
