<svg width="18" height="20" viewBox="0 0 18 20" fill="none" xmlns="http://www.w3.org/2000/svg">
<path d="M17.7926 14.2444C17.2723 13.3481 16.4989 10.8122 16.4989 7.5C16.4989 5.51088 15.7087 3.60322 14.3022 2.1967C12.8957 0.79018 10.988 0 8.99892 0C7.00982 0 5.10214 0.79018 3.69562 2.1967C2.28909 3.60322 1.49892 5.51088 1.49892 7.5C1.49892 10.8131 0.724539 13.3481 0.204229 14.2444C0.0713588 14.4722 0.000918735 14.7311 8.73535e-06 14.9949C-0.000891265 15.2586 0.0677687 15.518 0.199069 15.7467C0.330379 15.9755 0.519679 16.1656 0.747889 16.2978C0.976099 16.4301 1.23515 16.4998 1.49892 16.5H5.32485C5.49789 17.3467 5.95806 18.1077 6.62754 18.6542C7.29702 19.2007 8.13472 19.4992 8.99892 19.4992C9.86312 19.4992 10.7008 19.2007 11.3703 18.6542C12.0397 18.1077 12.4999 17.3467 12.673 16.5H16.4989C16.7626 16.4996 17.0215 16.4298 17.2496 16.2975C17.4777 16.1651 17.6668 15.975 17.798 15.7463C17.9292 15.5176 17.9978 15.2583 17.9969 14.9946C17.9959 14.7309 17.9255 14.4722 17.7926 14.2444ZM8.99892 18C8.53372 17.9999 8.08002 17.8555 7.70032 17.5869C7.32052 17.3183 7.03332 16.9386 6.87829 16.5H11.1195C10.9645 16.9386 10.6773 17.3183 10.2975 17.5869C9.91782 17.8555 9.46412 17.9999 8.99892 18ZM1.49892 15C2.22079 13.7587 2.99892 10.8825 2.99892 7.5C2.99892 5.9087 3.63106 4.38258 4.75628 3.25736C5.88149 2.13214 7.40762 1.5 8.99892 1.5C10.5902 1.5 12.1163 2.13214 13.2415 3.25736C14.3668 4.38258 14.9989 5.9087 14.9989 7.5C14.9989 10.8797 15.7751 13.7559 16.4989 15H1.49892Z" fill="black"/>
</svg>
