<svg width="9" height="9" viewBox="0 0 9 9" fill="none" xmlns="http://www.w3.org/2000/svg">
<mask id="path-1-inside-1_4032_2531" fill="white">
<path d="M7.88448 4.96433C7.78512 4.96433 7.68125 4.93263 7.58189 4.90998C7.38069 4.86551 7.18296 4.80648 6.99027 4.73333C6.78076 4.65689 6.55046 4.66086 6.34369 4.74448C6.13692 4.8281 5.96829 4.98545 5.87025 5.18627L5.77089 5.39009C5.33101 5.14468 4.92681 4.83988 4.56958 4.48422C4.21495 4.12595 3.91104 3.72057 3.66634 3.27941L3.85602 3.15258C4.05625 3.05426 4.21315 2.88514 4.29653 2.67777C4.3799 2.47039 4.38386 2.23942 4.30764 2.0293C4.23593 1.83563 4.17709 1.63742 4.13151 1.43595C4.10893 1.33631 4.09086 1.23213 4.07731 1.12796C4.02247 0.808917 3.85585 0.519998 3.60746 0.313231C3.35906 0.106465 3.04522 -0.00456281 2.72245 0.000143718L1.36759 0.000143718C1.17295 -0.00168911 0.980207 0.0385588 0.802476 0.118148C0.624744 0.197736 0.466198 0.314797 0.337631 0.461361C0.209064 0.607925 0.113493 0.780551 0.057426 0.967487C0.00135879 1.15442 -0.0138889 1.35128 0.0127209 1.54466C0.253317 3.44218 1.1174 5.20524 2.46848 6.55533C3.81956 7.90543 5.58063 8.76561 7.47351 9H7.64512C7.97815 9.00049 8.2997 8.87794 8.54836 8.65577C8.69124 8.52761 8.80537 8.3705 8.88323 8.19482C8.96108 8.01915 9.00087 7.8289 8.99999 7.63666V6.27785C8.99445 5.96323 8.88022 5.66029 8.67678 5.42074C8.47334 5.18119 8.19331 5.01987 7.88448 4.96433ZM8.11029 7.68195C8.11021 7.74626 8.09647 7.80982 8.07 7.86839C8.04352 7.92696 8.00491 7.97921 7.95674 8.02166C7.90643 8.06559 7.84744 8.09839 7.78362 8.1179C7.71981 8.13741 7.65261 8.1432 7.58641 8.13489C5.89504 7.91739 4.324 7.14137 3.1211 5.92922C1.9182 4.71707 1.1519 3.13779 0.943061 1.44048C0.935873 1.37414 0.942172 1.30702 0.961578 1.24318C0.980984 1.17934 1.01309 1.12011 1.05597 1.06907C1.09829 1.02076 1.15038 0.982039 1.20879 0.955486C1.26719 0.928933 1.33056 0.915158 1.39468 0.915076H2.74955C2.85457 0.912732 2.95712 0.94718 3.03955 1.01249C3.12198 1.0778 3.17913 1.16988 3.20117 1.2729C3.21923 1.3967 3.24181 1.51899 3.26891 1.63977C3.32108 1.87854 3.39051 2.11318 3.47666 2.34183L2.84439 2.63624C2.79033 2.66111 2.7417 2.69645 2.70129 2.74023C2.66089 2.784 2.62951 2.83535 2.60894 2.89133C2.58838 2.9473 2.57905 3.0068 2.58147 3.0664C2.5839 3.126 2.59805 3.18454 2.62309 3.23864C3.27307 4.63494 4.3922 5.75733 5.78444 6.4092C5.89439 6.4545 6.01772 6.4545 6.12767 6.4092C6.184 6.389 6.23576 6.35777 6.27995 6.31734C6.32414 6.27691 6.35988 6.22807 6.3851 6.17367L6.6651 5.53956C6.89858 5.6233 7.13686 5.69287 7.37866 5.74791C7.4991 5.77509 7.62103 5.79774 7.74448 5.81585C7.84719 5.83795 7.93901 5.89527 8.00413 5.97794C8.06925 6.06061 8.1036 6.16346 8.10126 6.26879L8.11029 7.68195Z"/>
</mask>
<path d="M7.88448 4.96433L8.06149 3.98012L7.97369 3.96433H7.88448V4.96433ZM7.58189 4.90998L7.80413 3.93496L7.79769 3.93354L7.58189 4.90998ZM6.99027 4.73333L7.34517 3.79834L7.33303 3.79391L6.99027 4.73333ZM5.87025 5.18627L4.97162 4.74756L4.97136 4.74809L5.87025 5.18627ZM5.77089 5.39009L5.28368 6.26338L6.20667 6.77831L6.66978 5.82827L5.77089 5.39009ZM4.56958 4.48422L3.85886 5.18773L3.86403 5.19288L4.56958 4.48422ZM3.66634 3.27941L3.11052 2.4481L2.34544 2.95964L2.79185 3.76446L3.66634 3.27941ZM3.85602 3.15258L3.41524 2.25497L3.35552 2.2843L3.3002 2.32128L3.85602 3.15258ZM4.30764 2.0293L5.24772 1.68829L5.24542 1.68207L4.30764 2.0293ZM4.13151 1.43595L5.10685 1.21526L5.10678 1.21494L4.13151 1.43595ZM4.07731 1.12796L5.06896 0.998987L5.06632 0.978702L5.06286 0.958541L4.07731 1.12796ZM2.72245 0.000143718V1.00014H2.72974L2.73703 1.00004L2.72245 0.000143718ZM1.36759 0.000143718L1.35817 1.00014H1.36759V0.000143718ZM0.0127209 1.54466L1.00483 1.41886L1.00339 1.40834L0.0127209 1.54466ZM7.47351 9L7.35062 9.99242L7.41183 10H7.47351V9ZM7.64512 9L7.64659 8H7.64512V9ZM8.54836 8.65577L9.21464 9.40147L9.2161 9.40017L8.54836 8.65577ZM8.99999 7.63666L7.99997 7.63666L8 7.64128L8.99999 7.63666ZM8.99999 6.27785H9.99999V6.26906L9.99983 6.26027L8.99999 6.27785ZM8.11029 7.68195L9.11032 7.68322L9.11027 7.67556L8.11029 7.68195ZM7.95674 8.02166L8.61453 8.77487L8.61782 8.77197L7.95674 8.02166ZM7.58641 8.13489L7.45887 9.12673L7.4618 9.12709L7.58641 8.13489ZM0.943061 1.44048L-0.0511219 1.54819L-0.0503406 1.5554L-0.0494547 1.5626L0.943061 1.44048ZM1.05597 1.06907L0.303749 0.410159L0.296919 0.417956L0.290253 0.425893L1.05597 1.06907ZM1.39468 0.915076L1.39468 -0.0849247L1.39341 -0.0849231L1.39468 0.915076ZM2.74955 0.915076V1.91508H2.7607L2.77186 1.91483L2.74955 0.915076ZM3.20117 1.2729L4.19069 1.12851L4.18593 1.09593L4.17905 1.06373L3.20117 1.2729ZM3.26891 1.63977L4.24588 1.4263L4.24466 1.42087L3.26891 1.63977ZM3.47666 2.34183L3.89878 3.24837L4.73934 2.85697L4.41245 1.98927L3.47666 2.34183ZM2.84439 2.63624L3.26241 3.54468L3.26651 3.54278L2.84439 2.63624ZM2.62309 3.23864L1.71561 3.65874L1.7165 3.66066L2.62309 3.23864ZM5.78444 6.4092L5.3604 7.31485L5.38173 7.32483L5.4035 7.3338L5.78444 6.4092ZM6.12767 6.4092L5.79001 5.46793L5.76818 5.47577L5.74673 5.4846L6.12767 6.4092ZM6.3851 6.17367L7.29236 6.59424L7.2962 6.58596L7.29988 6.57761L6.3851 6.17367ZM6.6651 5.53956L7.00271 4.59827L6.12638 4.28397L5.75032 5.13562L6.6651 5.53956ZM7.37866 5.74791L7.15673 6.72298L7.15854 6.72338L7.37866 5.74791ZM7.74448 5.81585L7.95481 4.83822L7.92245 4.83126L7.88969 4.82645L7.74448 5.81585ZM8.10126 6.26879L7.10151 6.24661L7.10119 6.26089L7.10128 6.27518L8.10126 6.26879ZM7.88448 4.96433V3.96433C7.91222 3.96433 7.93164 3.96651 7.9398 3.96758C7.9478 3.96863 7.94915 3.96921 7.94032 3.96734C7.93086 3.96533 7.91804 3.96235 7.89391 3.95647C7.87416 3.95165 7.83844 3.94281 7.80413 3.93499L7.58189 4.90998L7.35966 5.88497C7.37503 5.88848 7.38955 5.89209 7.42032 5.89959C7.44673 5.90602 7.48471 5.91521 7.52605 5.92396C7.60566 5.94082 7.73407 5.96433 7.88448 5.96433V4.96433ZM7.58189 4.90998L7.79769 3.93354C7.6438 3.89953 7.49255 3.85437 7.34514 3.79842L6.99027 4.73333L6.6354 5.66825C6.87337 5.75858 7.11758 5.83149 7.3661 5.88642L7.58189 4.90998ZM6.99027 4.73333L7.33303 3.79391C6.89099 3.63263 6.40498 3.64102 5.96878 3.81742L6.34369 4.74448L6.71859 5.67154C6.69593 5.68071 6.67053 5.68115 6.64751 5.67276L6.99027 4.73333ZM6.34369 4.74448L5.96878 3.81742C5.53265 3.99379 5.17774 4.32537 4.97162 4.74756L5.87025 5.18627L6.76888 5.62498C6.75884 5.64554 6.74118 5.66241 6.71859 5.67154L6.34369 4.74448ZM5.87025 5.18627L4.97136 4.74809L4.87201 4.95191L5.77089 5.39009L6.66978 5.82827L6.76914 5.62445L5.87025 5.18627ZM5.77089 5.39009L6.2581 4.51681C5.89826 4.31605 5.56751 4.06666 5.27513 3.77556L4.56958 4.48422L3.86403 5.19288C4.2861 5.6131 4.76377 5.97331 5.28368 6.26338L5.77089 5.39009ZM4.56958 4.48422L5.28029 3.78073C4.99003 3.4875 4.74121 3.15562 4.54082 2.79435L3.66634 3.27941L2.79185 3.76446C3.08087 4.28551 3.43987 4.76441 3.85887 5.18771L4.56958 4.48422ZM3.66634 3.27941L4.22215 4.11071L4.41184 3.98389L3.85602 3.15258L3.3002 2.32128L3.11052 2.4481L3.66634 3.27941ZM3.85602 3.15258L4.2968 4.0502C4.71902 3.84287 5.04911 3.48665 5.22434 3.0508L4.29653 2.67777L3.36871 2.30473C3.37719 2.28363 3.39348 2.26565 3.41524 2.25497L3.85602 3.15258ZM4.29653 2.67777L5.22434 3.0508C5.39955 2.61502 5.40786 2.12981 5.2477 1.6883L4.30764 2.0293L3.36758 2.3703C3.35986 2.34903 3.36025 2.32577 3.36871 2.30473L4.29653 2.67777ZM4.30764 2.0293L5.24542 1.68207C5.18901 1.52972 5.14272 1.37378 5.10685 1.21526L4.13151 1.43595L3.15616 1.65664C3.21147 1.90106 3.28285 2.14155 3.36986 2.37653L4.30764 2.0293ZM4.13151 1.43595L5.10678 1.21494C5.09182 1.14892 5.07894 1.0757 5.06896 0.998987L4.07731 1.12796L3.08566 1.25693C3.10279 1.38857 3.12604 1.52369 3.15624 1.65696L4.13151 1.43595ZM4.07731 1.12796L5.06286 0.958541C4.96778 0.405431 4.67881 -0.0960731 4.24722 -0.455336L3.60746 0.313231L2.96769 1.0818C3.03288 1.13607 3.07716 1.2124 3.09177 1.29737L4.07731 1.12796ZM3.60746 0.313231L4.24722 -0.455336C3.81557 -0.814656 3.26969 -1.00794 2.70787 -0.99975L2.72245 0.000143718L2.73703 1.00004C2.82075 0.998817 2.90256 1.02759 2.96769 1.0818L3.60746 0.313231ZM2.72245 0.000143718V-0.999856H1.36759V0.000143718V1.00014H2.72245V0.000143718ZM1.36759 0.000143718L1.377 -0.999812C1.03826 -1.003 0.702902 -0.932949 0.393778 -0.794522L0.802476 0.118148L1.21117 1.03082C1.25751 1.01007 1.30764 0.999624 1.35817 1.0001L1.36759 0.000143718ZM0.802476 0.118148L0.393778 -0.794522C0.0846632 -0.656099 -0.190851 -0.452608 -0.414122 -0.198084L0.337631 0.461361L1.08938 1.12081C1.12325 1.0822 1.16483 1.05157 1.21117 1.03082L0.802476 0.118148ZM0.337631 0.461361L-0.414122 -0.198084C-0.637385 0.0564308 -0.803186 0.356014 -0.900419 0.680204L0.057426 0.967487L1.01527 1.25477C1.03017 1.20509 1.05551 1.15942 1.08938 1.12081L0.337631 0.461361ZM0.057426 0.967487L-0.900419 0.680204C-0.997651 1.00439 -1.02408 1.34571 -0.977944 1.68098L0.0127209 1.54466L1.00339 1.40834C0.996301 1.35685 1.00037 1.30446 1.01527 1.25477L0.057426 0.967487ZM0.0127209 1.54466L-0.979336 1.67045C-0.710872 3.78777 0.253349 5.75552 1.76163 7.2627L2.46848 6.55533L3.17533 5.84797C1.98145 4.65496 1.21751 3.0966 1.00478 1.41887L0.0127209 1.54466ZM2.46848 6.55533L1.76163 7.2627C3.26996 8.76993 5.23644 9.73063 7.35062 9.99242L7.47351 9L7.59639 8.00758C5.92481 7.80059 4.36916 7.04093 3.17533 5.84797L2.46848 6.55533ZM7.47351 9V10H7.64512V9V8H7.47351V9ZM7.64512 9L7.64365 10C8.22334 10.0009 8.78257 9.78752 9.21464 9.40147L8.54836 8.65577L7.88209 7.91006C7.81683 7.96837 7.73297 8.00013 7.64659 8L7.64512 9ZM8.54836 8.65577L9.2161 9.40017C9.46432 9.17751 9.66242 8.90473 9.79748 8.59997L8.88323 8.19482L7.96898 7.78967C7.94833 7.83626 7.91816 7.8777 7.88063 7.91137L8.54836 8.65577ZM8.88323 8.19482L9.79748 8.59997C9.93253 8.29522 10.0015 7.96532 9.99997 7.63204L8.99999 7.63666L8 7.64128C8.00023 7.69248 7.98963 7.74307 7.96898 7.78967L8.88323 8.19482ZM8.99999 7.63666H9.99999V6.27785H8.99999H7.99999V7.63666H8.99999ZM8.99999 6.27785L9.99983 6.26027C9.99024 5.7149 9.79223 5.18936 9.439 4.77342L8.67678 5.42074L7.91456 6.06806C7.9682 6.13123 7.99867 6.21157 8.00014 6.29543L8.99999 6.27785ZM8.67678 5.42074L9.439 4.77342C9.08571 4.35743 8.59895 4.07678 8.06149 3.98012L7.88448 4.96433L7.70747 5.94854C7.78767 5.96296 7.86096 6.00495 7.91456 6.06806L8.67678 5.42074ZM8.11029 7.68195L7.11029 7.68069C7.11039 7.60345 7.12688 7.52703 7.15877 7.4565L8.07 7.86839L8.98123 8.28028C9.06607 8.0926 9.11003 7.88908 9.11029 7.68322L8.11029 7.68195ZM8.07 7.86839L7.15877 7.4565C7.19065 7.38595 7.23726 7.3228 7.29566 7.27134L7.95674 8.02166L8.61782 8.77197C8.77257 8.63562 8.89639 8.46797 8.98123 8.28028L8.07 7.86839ZM7.95674 8.02166L7.29896 7.26845C7.35466 7.2198 7.42016 7.18334 7.49122 7.16161L7.78362 8.1179L8.07602 9.0742C8.27471 9.01344 8.45819 8.91139 8.61452 8.77486L7.95674 8.02166ZM7.78362 8.1179L7.49122 7.16161C7.56229 7.13988 7.63721 7.13341 7.71102 7.14268L7.58641 8.13489L7.4618 9.12709C7.66801 9.15299 7.87733 9.13495 8.07602 9.0742L7.78362 8.1179ZM7.58641 8.13489L7.71395 7.14306C6.24359 6.95398 4.87734 6.2793 3.83091 5.22482L3.1211 5.92922L2.41129 6.63361C3.77067 8.00343 5.5465 8.88081 7.45887 9.12672L7.58641 8.13489ZM3.1211 5.92922L3.83091 5.22482C2.78443 4.1703 2.11738 2.79594 1.93558 1.31837L0.943061 1.44048L-0.0494547 1.5626C0.186415 3.47964 1.05197 5.26384 2.41129 6.63361L3.1211 5.92922ZM0.943061 1.44048L1.93724 1.33278C1.94457 1.40041 1.93816 1.46886 1.91835 1.53403L0.961578 1.24318L0.00480971 0.952329C-0.0538119 1.14517 -0.072825 1.34786 -0.0511219 1.54819L0.943061 1.44048ZM0.961578 1.24318L1.91835 1.53403C1.89854 1.5992 1.8657 1.65985 1.82168 1.71226L1.05597 1.06907L0.290253 0.425893C0.160486 0.580381 0.0634329 0.759485 0.00480971 0.952329L0.961578 1.24318ZM1.05597 1.06907L1.80818 1.72799C1.75698 1.78644 1.69378 1.83348 1.62267 1.86582L1.20879 0.955486L0.7949 0.0451566C0.606984 0.130594 0.439592 0.255081 0.303749 0.410159L1.05597 1.06907ZM1.20879 0.955486L1.62267 1.86582C1.55155 1.89815 1.47425 1.91498 1.39595 1.91508L1.39468 0.915076L1.39341 -0.0849231C1.18686 -0.0846608 0.982825 -0.040284 0.7949 0.0451566L1.20879 0.955486ZM1.39468 0.915076V1.91508H2.74955V0.915076V-0.0849239H1.39468V0.915076ZM2.74955 0.915076L2.77186 1.91483C2.64354 1.91769 2.5186 1.87557 2.41854 1.79629L3.03955 1.01249L3.66056 0.228686C3.39564 0.0187889 3.0656 -0.0922258 2.72724 -0.084675L2.74955 0.915076ZM3.03955 1.01249L2.41854 1.79629C2.31855 1.71707 2.24976 1.60582 2.22329 1.48207L3.20117 1.2729L4.17905 1.06373C4.10851 0.733945 3.92542 0.438532 3.66056 0.228686L3.03955 1.01249ZM3.20117 1.2729L2.21165 1.41728C2.23332 1.56582 2.26048 1.71298 2.29316 1.85868L3.26891 1.63977L4.24466 1.42087C4.22315 1.325 4.20514 1.22757 4.19069 1.12851L3.20117 1.2729ZM3.26891 1.63977L2.29196 1.85324C2.35446 2.13929 2.43765 2.42041 2.54086 2.69438L3.47666 2.34183L4.41245 1.98927C4.34338 1.80594 4.2877 1.61778 4.24586 1.42631L3.26891 1.63977ZM3.47666 2.34183L3.05454 1.43529L2.42227 1.7297L2.84439 2.63624L3.26651 3.54278L3.89878 3.24837L3.47666 2.34183ZM2.84439 2.63624L2.42637 1.7278C2.25243 1.80784 2.09616 1.92146 1.96645 2.06199L2.70129 2.74023L3.43613 3.41847C3.38723 3.47145 3.32822 3.51439 3.2624 3.54468L2.84439 2.63624ZM2.70129 2.74023L1.96645 2.06199C1.83675 2.20252 1.73614 2.3672 1.67027 2.54651L2.60894 2.89133L3.54761 3.23615C3.52287 3.30351 3.48503 3.36549 3.43613 3.41847L2.70129 2.74023ZM2.60894 2.89133L1.67027 2.54651C1.60441 2.72581 1.57453 2.91631 1.5823 3.1071L2.58147 3.0664L3.58065 3.0257C3.58356 3.09728 3.57236 3.16879 3.54761 3.23615L2.60894 2.89133ZM2.58147 3.0664L1.5823 3.1071C1.59008 3.29789 1.63535 3.48535 1.71561 3.65873L2.62309 3.23864L3.53057 2.81855C3.56074 2.88372 3.57773 2.95411 3.58065 3.0257L2.58147 3.0664ZM2.62309 3.23864L1.7165 3.66066C2.46536 5.26937 3.75509 6.56321 5.3604 7.31485L5.78444 6.4092L6.20848 5.50356C5.02932 4.95145 4.08077 4.0005 3.52968 2.81663L2.62309 3.23864ZM5.78444 6.4092L5.4035 7.3338C5.75746 7.47964 6.15465 7.47964 6.50862 7.3338L6.12767 6.4092L5.74673 5.4846C5.88079 5.42937 6.03133 5.42937 6.16539 5.4846L5.78444 6.4092ZM6.12767 6.4092L6.46533 7.35047C6.64663 7.28543 6.81304 7.18499 6.95498 7.05513L6.27995 6.31734L5.60492 5.57955C5.65847 5.53055 5.72137 5.49256 5.79001 5.46793L6.12767 6.4092ZM6.27995 6.31734L6.95498 7.05513C7.09691 6.92527 7.21154 6.76858 7.29236 6.59424L6.3851 6.17367L5.47784 5.7531C5.50822 5.68757 5.55137 5.62854 5.60492 5.57955L6.27995 6.31734ZM6.3851 6.17367L7.29988 6.57761L7.57989 5.9435L6.6651 5.53956L5.75032 5.13562L5.47031 5.76973L6.3851 6.17367ZM6.6651 5.53956L6.3275 6.48085C6.59881 6.57816 6.87572 6.65901 7.15673 6.72297L7.37866 5.74791L7.6006 4.77285C7.398 4.72674 7.19834 4.66844 7.00271 4.59827L6.6651 5.53956ZM7.37866 5.74791L7.15854 6.72338C7.30402 6.75621 7.45095 6.78349 7.59927 6.80525L7.74448 5.81585L7.88969 4.82645C7.79112 4.81199 7.69418 4.79396 7.59879 4.77244L7.37866 5.74791ZM7.74448 5.81585L7.53414 6.79348C7.40876 6.76651 7.2973 6.69667 7.21857 6.59673L8.00413 5.97794L8.78969 5.35915C8.58072 5.09387 8.28562 4.9094 7.95481 4.83822L7.74448 5.81585ZM8.00413 5.97794L7.21857 6.59673C7.1399 6.49685 7.0987 6.37304 7.10151 6.24661L8.10126 6.26879L9.10101 6.29097C9.10849 5.95389 8.9986 5.62437 8.78969 5.35915L8.00413 5.97794ZM8.10126 6.26879L7.10128 6.27518L7.11031 7.68834L8.11029 7.68195L9.11027 7.67556L9.10124 6.2624L8.10126 6.26879Z" fill="black" mask="url(#path-1-inside-1_4032_2531)"/>
</svg>
