<svg width="35" height="30" viewBox="0 0 35 30" fill="none" xmlns="http://www.w3.org/2000/svg">
<path d="M32.3066 1L32.4736 1.00879C32.8612 1.04762 33.2261 1.21826 33.5039 1.49609C33.8214 1.81355 33.9995 2.24442 34 2.69336V26.9229C33.9992 27.3715 33.8211 27.8019 33.5039 28.1191C33.1865 28.4366 32.7556 28.6147 32.3066 28.6152H2.69336C2.24442 28.6147 1.81354 28.4366 1.49609 28.1191C1.21827 27.8413 1.04758 27.4765 1.00879 27.0889L1 26.9219L1 2.69336C1.00054 2.24442 1.17864 1.81354 1.49609 1.49609C1.77393 1.21826 2.13879 1.04762 2.52637 1.00879L2.69336 1L32.3066 1ZM1.69238 20.7031L3.39941 18.9951L9.57129 12.8223L9.57227 12.8232C9.89009 12.5063 10.3207 12.3281 10.7695 12.3281C11.2184 12.3282 11.649 12.5062 11.9668 12.8232L20.1924 21.0488L20.8994 20.3418L24.3789 16.8613L24.3799 16.8623C24.6977 16.5452 25.1282 16.3662 25.5771 16.3662C25.9699 16.3662 26.3489 16.5026 26.6504 16.749L26.7744 16.8623L31.6016 21.6895L33.3096 23.3965V20.9824L33.3076 2.69238V1.69238L1.69238 1.69238L1.69238 20.7031ZM22.2109 9.07715C22.4813 9.07713 22.7414 9.18387 22.9326 9.375C23.0998 9.54216 23.2023 9.76192 23.2256 9.99512L23.2305 10.0967C23.2303 10.367 23.1233 10.6266 22.9326 10.8174C22.7414 11.0086 22.4813 11.1162 22.2109 11.1162C21.9407 11.1161 21.6813 11.0085 21.4902 10.8174C21.2992 10.6262 21.1915 10.3669 21.1914 10.0967C21.1914 9.82645 21.2992 9.56714 21.4902 9.37598C21.6813 9.18487 21.9407 9.07727 22.2109 9.07715Z" stroke="black" stroke-width="2"/>
</svg>
