<svg width="21" height="26" viewBox="0 0 21 26" fill="none" xmlns="http://www.w3.org/2000/svg">
<g clip-path="url(#clip0_4021_2546)">
<path d="M17.055 1H3.12989C1.99579 1 1 1.93297 1 3.0373V23.6367C1 24.0064 1.10288 24.3144 1.2687 24.5525C1.467 24.837 1.78629 25.0001 2.12867 25C2.45237 25 2.79701 24.8559 3.11529 24.5841L9.34536 19.2944C9.53777 19.1301 9.81417 19.0359 10.1015 19.0359C10.3888 19.0359 10.6646 19.1301 10.8576 19.2949L17.0669 24.5833C17.3863 24.8559 17.7071 25.0001 18.0303 25.0001C18.5767 25.0001 19.1094 24.5786 19.1094 23.6368V3.0373C19.1094 1.93297 18.1891 1 17.055 1Z" stroke="black" stroke-width="2"/>
</g>
<defs>
<clipPath id="clip0_4021_2546">
<rect width="21" height="26" fill="white"/>
</clipPath>
</defs>
</svg>
