<svg width="18" height="18" viewBox="0 0 18 18" fill="none" xmlns="http://www.w3.org/2000/svg">
<path d="M17.7973 16.8188L13.4691 12.4914C14.7236 10.9853 15.3491 9.05344 15.2156 7.09785C15.0821 5.14224 14.1997 3.31339 12.7522 1.99175C11.3046 0.670107 9.40328 -0.042568 7.44359 0.00196839C5.48395 0.0465048 3.61691 0.844822 2.23087 2.23086C0.844831 3.61691 0.0465047 5.48395 0.00196836 7.44358C-0.042568 9.40327 0.670115 11.3046 1.99176 12.7522C3.3134 14.1998 5.14224 15.0821 7.09785 15.2156C9.05345 15.3491 10.9853 14.7236 12.4914 13.4691L16.8188 17.7973C16.8831 17.8616 16.9593 17.9126 17.0433 17.9473C17.1273 17.9821 17.2172 18 17.3081 18C17.3989 18 17.4889 17.9821 17.5729 17.9473C17.6568 17.9126 17.7331 17.8616 17.7973 17.7973C17.8616 17.7331 17.9126 17.6568 17.9473 17.5729C17.9821 17.4889 18 17.399 18 17.3081C18 17.2172 17.9821 17.1273 17.9473 17.0432C17.9126 16.9593 17.8616 16.8831 17.7973 16.8188ZM1.40223 7.62624C1.40223 6.39526 1.76726 5.19191 2.45116 4.16836C3.13507 3.14483 4.10713 2.34708 5.24442 1.876C6.38172 1.40492 7.63317 1.28166 8.84054 1.52181C10.0478 1.76197 11.1569 2.35475 12.0273 3.2252C12.8978 4.09565 13.4906 5.20466 13.7307 6.412C13.9709 7.61933 13.8476 8.87077 13.3765 10.0081C12.9054 11.1454 12.1076 12.1174 11.0841 12.8013C10.0606 13.4852 8.85723 13.8503 7.62625 13.8503C5.9761 13.8484 4.39406 13.1921 3.22722 12.0253C2.06039 10.8585 1.40406 9.2764 1.40223 7.62624Z" fill="black"/>
</svg>
