<svg width="19" height="19" viewBox="0 0 19 19" fill="none" xmlns="http://www.w3.org/2000/svg">
<path d="M18.2973 17.3188L13.9691 12.9914C15.2236 11.4853 15.8491 9.55344 15.7156 7.59785C15.5821 5.64224 14.6997 3.81339 13.2522 2.49175C11.8046 1.17011 9.90328 0.457432 7.94359 0.501968C5.98395 0.546505 4.11691 1.34482 2.73087 2.73086C1.34483 4.11691 0.546505 5.98395 0.501968 7.94358C0.457432 9.90327 1.17012 11.8046 2.49176 13.2522C3.8134 14.6998 5.64224 15.5821 7.59785 15.7156C9.55345 15.8491 11.4853 15.2236 12.9914 13.9691L17.3188 18.2973C17.3831 18.3616 17.4593 18.4126 17.5433 18.4473C17.6273 18.4821 17.7172 18.5 17.8081 18.5C17.8989 18.5 17.9889 18.4821 18.0729 18.4473C18.1568 18.4126 18.2331 18.3616 18.2973 18.2973C18.3616 18.2331 18.4126 18.1568 18.4473 18.0729C18.4821 17.9889 18.5 17.899 18.5 17.8081C18.5 17.7172 18.4821 17.6273 18.4473 17.5432C18.4126 17.4593 18.3616 17.3831 18.2973 17.3188ZM1.90223 8.12624C1.90223 6.89526 2.26726 5.69191 2.95116 4.66836C3.63507 3.64483 4.60713 2.84708 5.74442 2.376C6.88172 1.90492 8.13317 1.78166 9.34054 2.02181C10.5478 2.26197 11.6569 2.85475 12.5273 3.7252C13.3978 4.59565 13.9906 5.70466 14.2307 6.912C14.4709 8.11933 14.3476 9.37077 13.8765 10.5081C13.4054 11.6454 12.6076 12.6174 11.5841 13.3013C10.5606 13.9852 9.35723 14.3503 8.12625 14.3503C6.4761 14.3484 4.89406 13.6921 3.72722 12.5253C2.56039 11.3585 1.90406 9.7764 1.90223 8.12624Z" fill="black" stroke="black"/>
</svg>
