<svg width="22" height="22" viewBox="0 0 22 22" fill="none" xmlns="http://www.w3.org/2000/svg">
<path d="M20.6976 2.56252C20.6976 2.56252 20.6976 2.57145 20.6976 2.57592L15.5011 19.7167C15.4224 19.9951 15.2606 20.2428 15.0371 20.4265C14.8137 20.6103 14.5394 20.7213 14.2511 20.7446C14.21 20.7481 14.1689 20.75 14.1279 20.75C13.8577 20.7508 13.5929 20.6743 13.3648 20.5295C13.1366 20.3848 12.9547 20.1777 12.8404 19.9328L9.65196 13.2003C9.62047 13.1337 9.61036 13.059 9.62299 12.9864C9.63562 12.9138 9.67037 12.8469 9.72249 12.7948L14.835 7.68048C14.9633 7.54541 15.0337 7.36554 15.0314 7.17925C15.029 6.99296 14.954 6.81497 14.8223 6.68323C14.6906 6.55149 14.5126 6.47642 14.3263 6.47403C14.14 6.47164 13.9602 6.54213 13.8252 6.67045L8.70463 11.7839C8.65259 11.8361 8.5857 11.8708 8.51313 11.8835C8.44056 11.8961 8.36587 11.886 8.29927 11.8545L1.60283 8.68156C1.33983 8.56105 1.1185 8.36518 0.966873 8.11878C0.815242 7.87237 0.740128 7.5865 0.751041 7.29736C0.765584 7.0002 0.873147 6.71512 1.05852 6.48243C1.2439 6.24974 1.49771 6.08123 1.78408 6.00068L18.9216 0.803259H18.935C19.179 0.734693 19.4369 0.732289 19.6822 0.796293C19.9273 0.860298 20.1512 0.988407 20.3306 1.16747C20.5099 1.34654 20.6384 1.57013 20.703 1.81528C20.7674 2.06044 20.7656 2.31833 20.6976 2.56252Z" stroke="black" stroke-width="1.5"/>
</svg>
