<svg width="15" height="15" viewBox="0 0 15 15" fill="none" xmlns="http://www.w3.org/2000/svg">
<path d="M14.4623 1.76852C14.4623 1.76852 14.4623 1.77477 14.4623 1.7779L10.8248 13.7741C10.7697 13.969 10.6564 14.1423 10.5 14.2709C10.3436 14.3995 10.1516 14.4772 9.94975 14.4935C9.921 14.496 9.89225 14.4973 9.8635 14.4973C9.67437 14.4979 9.48902 14.4443 9.32933 14.343C9.16964 14.2417 9.04227 14.0968 8.96225 13.9254L6.73038 9.21352C6.70834 9.16691 6.70126 9.11462 6.7101 9.06382C6.71894 9.01303 6.74327 8.96621 6.77975 8.92977L10.3585 5.3504C10.4483 5.25587 10.4976 5.12999 10.496 4.99961C10.4943 4.86923 10.4418 4.74466 10.3496 4.65246C10.2574 4.56026 10.1328 4.50772 10.0024 4.50605C9.87203 4.50438 9.74616 4.55371 9.65163 4.64352L6.06725 8.22227C6.03082 8.25876 5.984 8.28309 5.9332 8.29193C5.8824 8.30077 5.83012 8.29368 5.7835 8.27165L1.096 6.05102C0.911905 5.96668 0.756976 5.8296 0.650834 5.65715C0.544693 5.4847 0.492113 5.28463 0.499752 5.08227C0.509932 4.8743 0.585226 4.67478 0.71499 4.51193C0.844754 4.34908 1.02242 4.23114 1.22288 4.17477L13.2191 0.537274H13.2285C13.3993 0.489287 13.5798 0.487605 13.7515 0.532399C13.9231 0.577194 14.0798 0.666853 14.2054 0.792176C14.3309 0.9175 14.4209 1.07398 14.4661 1.24555C14.5112 1.41713 14.5099 1.59762 14.4623 1.76852Z" stroke="white"/>
</svg>
