<svg width="21" height="19" viewBox="0 0 21 19" fill="none" xmlns="http://www.w3.org/2000/svg">
<path d="M6.34473 0.138672C6.53108 -0.0464499 6.83227 -0.0465684 7.01855 0.138672L10.5 3.60352L13.9805 0.139648C14.1666 -0.0455363 14.4675 -0.044762 14.6523 0.141602C14.8366 0.327552 14.8359 0.62785 14.6504 0.8125L11.8457 3.60352H19.0908C19.597 3.60359 20.0825 3.80391 20.4404 4.16016C20.7985 4.51648 21 5 21 5.50391V16.9033C21 17.9482 20.1407 18.8036 19.0908 18.8037H1.90918C0.85918 18.8037 0 17.9483 0 16.9033V5.50391C0 5.00004 0.200636 4.51647 0.558594 4.16016C0.916614 3.80384 1.40286 3.60352 1.90918 3.60352H9.15332L6.34473 0.816406C6.15692 0.62972 6.15699 0.32552 6.34473 0.138672ZM9.8457 7.77148C9.17909 7.39236 8.35156 7.87375 8.35156 8.64062V12.8027C8.35188 13.5693 9.17925 14.0507 9.8457 13.6719L13.5049 11.5908C14.179 11.2074 14.1789 10.2361 13.5049 9.85254L9.8457 7.77148Z" fill="black"/>
</svg>
