<svg width="24" height="24" viewBox="0 0 24 24" fill="none" xmlns="http://www.w3.org/2000/svg">
<path d="M20.5909 6.3H13.3459L16.1507 3.5086C16.3362 3.32395 16.3373 3.02398 16.153 2.83803C15.9682 2.65147 15.6671 2.6504 15.4809 2.83565L12 6.3L8.51881 2.83538C8.33243 2.6499 8.0312 2.6499 7.84483 2.83538C7.65699 3.02233 7.65722 3.32644 7.84534 3.5131L10.6541 6.3H3.40909C2.90277 6.3 2.41718 6.50018 2.05916 6.8565C1.70114 7.21282 1.5 7.69609 1.5 8.2V19.6C1.5 20.645 2.35909 21.5 3.40909 21.5H20.5909C21.6409 21.5 22.5 20.645 22.5 19.6V8.2C22.5 7.69609 22.2989 7.21282 21.9408 6.8565C21.5828 6.50018 21.0972 6.3 20.5909 6.3ZM20.8929 18.8486C20.8929 19.4009 20.4452 19.8486 19.8929 19.8486H12H4.14808C3.5958 19.8486 3.14808 19.4009 3.14808 18.8486V13.6625V8.94279C3.14808 8.3905 3.5958 7.94278 4.14808 7.94278H12H19.8929C20.4452 7.94278 20.8929 8.3905 20.8929 8.94278V13.8957V18.8486ZM10.6307 10.9499C9.96407 10.5707 9.13636 11.0522 9.13636 11.8191V15.9809C9.13636 16.7478 9.96407 17.2293 10.6307 16.8501L14.2897 14.7693C14.9639 14.3858 14.9639 13.4142 14.2897 13.0307L10.6307 10.9499Z" fill="white"/>
</svg>
