<svg width="21" height="19" viewBox="0 0 21 19" fill="none" xmlns="http://www.w3.org/2000/svg">
<path d="M19.0909 3.60373H11.8459L14.6507 0.81233C14.8362 0.62768 14.8373 0.32771 14.653 0.14176C14.4682 -0.0448 14.1671 -0.0458701 13.9809 0.13938L10.5 3.60373L7.01881 0.13911C6.83243 -0.04637 6.5312 -0.04637 6.34483 0.13911C6.15699 0.32606 6.15722 0.63017 6.34534 0.81683L9.1541 3.60373H1.90909C1.40277 3.60373 0.91718 3.80391 0.55916 4.16023C0.20114 4.51655 0 4.99982 0 5.50373V16.9037C0 17.9487 0.85909 18.8037 1.90909 18.8037H19.0909C20.1409 18.8037 21 17.9487 21 16.9037V5.50373C21 4.99982 20.7989 4.51655 20.4408 4.16023C20.0828 3.80391 19.5972 3.60373 19.0909 3.60373ZM19.3929 16.1523C19.3929 16.7046 18.9452 17.1523 18.3929 17.1523H10.5H2.64808C2.0958 17.1523 1.64808 16.7046 1.64808 16.1523V10.9662V6.24652C1.64808 5.69423 2.0958 5.24651 2.64808 5.24651H10.5H18.3929C18.9452 5.24651 19.3929 5.69423 19.3929 6.24651V11.1994V16.1523ZM9.1307 8.25363C8.46407 7.87443 7.63636 8.35593 7.63636 9.12283V13.2846C7.63636 14.0515 8.46407 14.533 9.1307 14.1538L12.7897 12.073C13.4639 11.6895 13.4639 10.7179 12.7897 10.3344L9.1307 8.25363Z" fill="black"/>
</svg>
