<svg width="62" height="46" viewBox="0 0 62 46" fill="none" xmlns="http://www.w3.org/2000/svg">
<path d="M31.9144 0.012076C32.625 -0.0553471 33.3344 0.161425 33.8851 0.615592C34.4357 1.06974 34.7828 1.72455 34.8519 2.43493L35.5941 10.1673L32.8206 9.44469L32.1722 2.69274L2.69271 5.52379L4.18294 21.0482L9.73763 14.3129C10.1924 13.7628 10.8475 13.4153 11.5579 13.347L11.8236 13.3343C12.4425 13.3362 13.0454 13.5521 13.5277 13.9486L21.7318 20.7152L24.8636 16.9183C25.3165 16.3705 25.968 16.0228 26.6751 15.9525L25.9476 18.7455L23.2747 21.9877L22.0023 23.5306L12.2581 15.4935L12.1439 15.4173C12.024 15.3533 11.8866 15.3251 11.7493 15.3382C11.5661 15.3559 11.397 15.4454 11.2796 15.5873L11.2786 15.5863L5.72591 22.3207L3.8304 24.6195L4.31966 29.7074L4.34603 29.8412C4.38545 29.9715 4.46309 30.0892 4.56966 30.1771C4.71156 30.2938 4.89453 30.3497 5.07747 30.3324L23.387 28.5736L22.8499 30.6332L5.26595 32.3226L5.00033 32.3343C4.46978 32.3321 3.95174 32.1737 3.51107 31.8783L3.29622 31.7191C2.74581 31.265 2.39757 30.6109 2.32845 29.9007L0.012044 5.78063C-0.0552901 5.07022 0.161584 4.36147 0.61556 3.8109C1.06968 3.26029 1.72452 2.91223 2.4349 2.84313L31.9144 0.012076ZM22.8363 9.00817C23.3007 9.0097 23.7541 9.17102 24.1156 9.46911C24.5285 9.80973 24.7888 10.3015 24.8402 10.8343C24.8911 11.3672 24.7286 11.8999 24.388 12.3129L24.2533 12.4613C23.9238 12.7884 23.489 12.9937 23.0228 13.0384L22.8236 13.0472C22.359 13.0457 21.9068 12.8835 21.5452 12.5853C21.1837 12.2871 20.9388 11.8741 20.849 11.4183L20.8197 11.2211C20.7749 10.7545 20.8938 10.2886 21.1527 9.9027L21.2718 9.74352C21.6124 9.33051 22.1032 9.06934 22.6361 9.01794L22.8363 9.00817ZM22.8148 11.016C22.8118 11.0199 22.8095 11.0248 22.8099 11.0297C22.8104 11.0346 22.8129 11.0401 22.8167 11.0433C22.8206 11.0465 22.8264 11.0476 22.8314 11.0472C22.8364 11.0467 22.8417 11.0442 22.8451 11.0404C22.8478 11.037 22.8493 11.0311 22.849 11.0257L22.8431 11.0131C22.8391 11.0098 22.8326 11.0077 22.8275 11.0082C22.8225 11.0088 22.8179 11.0121 22.8148 11.016Z" fill="black"/>
<path d="M39.994 17.9278C40.3833 17.8399 40.7843 17.982 41.0339 18.3057L47.8697 27.173C48.0798 27.4456 48.1588 27.8178 48.0648 28.1785C47.9709 28.5393 47.7203 28.8256 47.4038 28.961L37.1103 33.3655C36.8901 33.4597 36.6564 33.4733 36.4427 33.4176C36.2895 33.3777 36.1436 33.3017 36.0179 33.1889L36.0182 33.1879C35.7173 32.9177 35.578 32.4765 35.6913 32.0411L39.1491 18.7693C39.2626 18.3341 39.5995 18.0168 39.994 17.9278Z" stroke="black" stroke-width="2"/>
<rect x="28.3698" y="8.58017" width="33" height="28" rx="2" transform="rotate(14.603 28.3698 8.58017)" stroke="black" stroke-width="2"/>
</svg>
