<svg width="13" height="8" viewBox="0 0 13 8" fill="none" xmlns="http://www.w3.org/2000/svg">
<path d="M1.5 7.5H8C8.48564 7.5 8.9998 7.01457 9 6.28613V4.05176L9.84961 4.88477L12.1445 7.13379C12.1739 7.16258 12.1989 7.17063 12.2207 7.17285C12.247 7.17548 12.2866 7.17036 12.332 7.14648C12.424 7.09803 12.4999 6.99495 12.5 6.85742V1.14258C12.4999 1.0044 12.4238 0.90083 12.332 0.852539C12.287 0.828872 12.2481 0.824501 12.2217 0.827148C12.1997 0.829368 12.1742 0.837144 12.1445 0.866211L9.84961 3.11523L9 3.94824V1.71387C8.9998 0.985433 8.48564 0.5 8 0.5H1.5C1.01436 0.5 0.500197 0.985433 0.5 1.71387V6.28613C0.500197 7.01457 1.01436 7.5 1.5 7.5Z" stroke="black"/>
</svg>
